<?xml version="1.0" standalone="no"?>
<svg xmlns="http://www.w3.org/2000/svg" width="24" height="24"><rect width="24" height="24" opacity="0"></rect><g><path d="M12 1.01Q9.02 1.01 6.49 2.48Q3.96 3.96 2.48 6.49Q1.01 9.02 1.01 12Q1.01 14.98 2.48 17.51Q3.96 20.04 6.49 21.52Q9.02 22.99 12 22.99Q14.98 22.99 17.51 21.52Q20.04 20.04 21.52 17.51Q22.99 14.98 22.99 12Q22.99 9.02 21.52 6.49Q20.04 3.96 17.51 2.48Q14.98 1.01 12 1.01ZM16.97 11.26Q16.9 9.26 16.34 7.34Q18.02 6.82 19.37 6Q20.26 7.1 20.8 8.44Q21.34 9.77 21.46 11.26L16.97 11.26ZM8.52 11.26Q8.59 9.43 9.1 7.7Q10.37 7.99 11.99 7.99Q13.61 7.99 14.9 7.73Q15.41 9.41 15.48 11.26L8.52 11.26ZM15.48 12.74Q15.38 14.5 14.86 16.27Q12 15.7 9.14 16.27Q8.62 14.5 8.52 12.74L15.48 12.74ZM15.89 5.93Q15.26 4.25 14.3 2.78Q15.43 3.07 16.44 3.61Q17.45 4.15 18.29 4.9Q17.21 5.5 15.89 5.93ZM12.31 2.52Q13.61 4.2 14.42 6.29Q13.27 6.5 12.01 6.5Q10.75 6.5 9.6 6.26Q10.01 5.26 10.54 4.32Q11.06 3.38 11.74 2.52Q11.88 2.5 12.02 2.5Q12.17 2.5 12.31 2.52ZM8.14 5.9Q6.89 5.52 5.71 4.87Q6.55 4.13 7.57 3.6Q8.59 3.07 9.7 2.78Q8.71 4.32 8.14 5.9ZM4.66 5.98Q6.1 6.82 7.66 7.32Q7.1 9.29 7.03 11.23L2.54 11.23Q2.64 9.77 3.19 8.44Q3.74 7.1 4.66 5.98ZM7.03 12.74Q7.1 14.59 7.68 16.66Q6.07 17.16 4.66 18Q3.74 16.87 3.19 15.54Q2.64 14.21 2.54 12.74L7.03 12.74ZM8.18 18.07Q8.78 19.68 9.82 21.24Q8.69 20.95 7.64 20.41Q6.6 19.87 5.71 19.1Q6.86 18.48 8.18 18.07ZM11.86 21.48Q11.28 20.78 10.8 20Q10.32 19.22 9.94 18.38L9.65 17.71Q10.94 17.47 12.02 17.47Q13.1 17.47 14.35 17.71Q14.3 17.86 14.02 18.48Q13.63 19.3 13.18 20.05Q12.72 20.81 12.17 21.48Q12.07 21.48 12.01 21.48Q11.95 21.48 11.86 21.48ZM15.84 18.05Q17.14 18.46 18.29 19.1Q17.42 19.87 16.38 20.42Q15.34 20.98 14.21 21.24Q15.22 19.66 15.84 18.05ZM19.37 18Q17.9 17.14 16.32 16.63Q16.9 14.76 16.97 12.74L21.48 12.74Q21.36 14.23 20.82 15.56Q20.28 16.9 19.37 18Z" fill="rgba(10,89,247,1)"></path></g></svg>